<?xml version="1.0" standalone="no"?>
<!DOCTYPE svg PUBLIC "-//W3C//DTD SVG 20010904//EN"
 "http://www.w3.org/TR/2001/REC-SVG-20010904/DTD/svg10.dtd">
<svg version="1.0" xmlns="http://www.w3.org/2000/svg"
 width="601.000000pt" height="578.000000pt" viewBox="0 0 601.000000 578.000000"
 preserveAspectRatio="xMidYMid meet">

<g transform="translate(0.000000,578.000000) scale(0.100000,-0.100000)"
fill="#f2cd88" stroke="none">
<path d="M2924 4869 c-57 -27 -71 -45 -88 -112 -22 -83 1 -148 67 -194 34 -23
51 -28 103 -28 55 0 67 4 100 30 51 42 74 89 74 150 0 131 -137 213 -256 154z"/>
<path d="M2940 4420 c-232 -47 -414 -292 -510 -685 -17 -72 -35 -140 -40 -152
-12 -28 -22 -24 -115 37 -157 104 -338 183 -487 214 -369 76 -612 -133 -571
-488 20 -169 92 -349 220 -554 39 -61 62 -107 57 -112 -5 -5 -68 -23 -139 -39
-273 -62 -458 -154 -591 -293 -73 -76 -112 -152 -126 -247 -15 -104 -9 -118
55 -126 28 -3 433 -5 898 -3 699 2 849 5 862 17 12 9 17 29 17 67 0 193 119
392 282 469 226 108 452 76 616 -86 99 -98 161 -244 162 -381 0 -97 -91 -89
926 -86 1000 3 914 -4 914 78 0 152 -83 287 -244 399 -126 87 -259 141 -475
192 -69 16 -130 34 -135 39 -6 6 16 51 56 117 168 276 225 451 216 660 -8 154
-54 245 -159 315 -213 140 -519 87 -904 -156 -100 -63 -108 -62 -121 13 -19
116 -79 310 -129 415 -81 172 -219 317 -343 360 -55 20 -139 26 -192 16z m-25
-785 c0 -531 -1 -580 -17 -583 -10 -2 -41 27 -86 80 -38 46 -113 126 -166 179
-112 112 -110 105 -76 286 46 239 134 444 238 555 47 49 71 68 86 66 l21 -3 0
-580z m286 518 c102 -112 186 -308 235 -548 36 -182 38 -173 -59 -274 -97
-101 -196 -214 -222 -254 -12 -19 -25 -27 -39 -25 l-21 3 -3 570 c-1 314 0
576 3 583 10 28 46 9 106 -55z m-1431 -488 c137 -32 285 -101 447 -208 159
-106 150 -86 157 -327 4 -113 8 -225 9 -250 1 -33 -2 -45 -13 -47 -9 -2 -188
169 -423 405 -381 381 -408 410 -392 425 21 22 125 22 215 2z m2668 9 c12 -4
22 -14 22 -23 0 -9 -182 -198 -404 -420 -437 -437 -445 -443 -432 -338 3 28 9
131 12 227 3 96 7 185 10 197 9 46 123 134 297 231 169 95 396 152 495 126z
m-2603 -564 c372 -373 408 -411 394 -426 -14 -13 -27 -14 -96 -4 -44 6 -155
12 -248 14 l-168 3 -24 29 c-63 76 -184 272 -223 359 -60 139 -83 226 -84 320
-1 86 6 115 26 115 7 0 198 -184 423 -410z m2787 375 c30 -103 -43 -346 -165
-550 -129 -214 -172 -255 -256 -241 -21 3 -109 1 -197 -5 -87 -6 -172 -12
-189 -13 -72 -3 -49 25 366 441 222 222 410 402 418 401 8 -2 18 -16 23 -33z
m-1970 -421 c86 -101 210 -283 206 -303 -2 -8 -20 -20 -41 -27 -21 -7 -74 -30
-118 -50 -45 -20 -85 -32 -89 -28 -23 24 -70 304 -70 422 0 65 2 72 20 72 12
0 46 -31 92 -86z m818 21 c0 -72 -24 -259 -45 -349 -20 -87 -28 -91 -100 -57
-33 15 -84 36 -113 45 -29 10 -56 24 -59 32 -15 39 253 394 298 394 17 0 19
-7 19 -65z m-1290 -580 c129 -19 194 -34 216 -49 17 -13 16 -18 -18 -92 -20
-44 -41 -96 -48 -116 -9 -29 -17 -38 -34 -38 -27 0 -162 92 -293 198 -85 69
-105 96 -86 116 9 8 132 -1 263 -19z m1915 8 c5 -13 -7 -31 -47 -67 -69 -64
-218 -175 -290 -215 l-57 -32 -14 28 c-8 15 -20 46 -27 68 -7 22 -23 61 -36
87 -31 62 -30 74 9 87 73 23 300 56 413 60 31 1 44 -3 49 -16z m-2452 -4 c12
-7 76 -64 142 -128 66 -64 144 -134 173 -156 38 -28 52 -46 50 -60 -3 -20 -9
-20 -583 -20 l-580 0 0 21 c0 12 17 40 37 63 110 121 326 217 594 266 71 13
133 24 137 24 5 1 18 -4 30 -10z m2912 -20 c230 -45 426 -128 533 -225 74 -66
88 -89 71 -110 -10 -12 -98 -14 -578 -14 -560 0 -591 2 -591 31 0 4 32 33 71
64 40 32 125 109 190 172 l118 113 43 -6 c24 -3 88 -15 143 -25z"/>
<path d="M1125 4135 c-5 -2 -22 -6 -37 -9 -59 -13 -128 -99 -128 -158 0 -44
21 -99 51 -132 71 -81 184 -81 261 1 98 103 38 270 -107 295 -16 3 -34 4 -40
3z"/>
<path d="M4800 4123 c-135 -51 -148 -252 -21 -322 107 -59 229 -3 263 122 11
43 10 49 -18 104 -37 72 -85 103 -159 102 -27 0 -57 -3 -65 -6z"/>
<path d="M1608 1239 l27 -53 0 -226 0 -225 -28 -47 c-25 -41 -27 -49 -13 -54
9 -3 100 -4 204 -2 204 5 253 16 304 65 41 39 62 102 53 159 -5 36 -16 55 -51
90 -24 25 -44 49 -44 54 0 5 11 26 25 46 52 76 22 167 -71 214 -46 24 -60 25
-241 28 l-193 4 28 -53z m242 -9 c39 -21 52 -147 18 -187 -19 -23 -65 -43 -84
-36 -15 5 -16 18 -11 109 2 56 8 107 11 113 9 14 41 14 66 1z m-1 -295 c82
-42 79 -208 -5 -242 -26 -10 -35 -10 -50 1 -15 11 -18 32 -22 135 l-4 121 26
0 c15 0 40 -7 55 -15z"/>
<path d="M2240 1286 c0 -2 12 -28 28 -57 27 -53 27 -54 27 -264 0 -208 0 -210
-27 -265 -15 -30 -23 -59 -19 -63 10 -10 266 -5 277 6 4 4 -2 20 -13 35 -35
48 -43 99 -43 287 0 186 8 242 41 284 11 13 19 28 19 32 0 5 -65 9 -145 9 -80
0 -145 -2 -145 -4z"/>
<path d="M3457 1284 c-3 -3 6 -24 20 -46 23 -34 28 -56 36 -160 15 -186 -4
-351 -45 -411 -19 -26 4 -37 82 -37 94 0 98 5 66 83 -24 61 -26 76 -26 223 0
135 2 156 14 144 7 -8 66 -100 131 -205 64 -104 127 -201 141 -215 22 -22 34
-25 112 -28 107 -3 123 4 94 45 -37 51 -44 108 -40 314 3 191 3 195 31 241 15
26 27 49 27 52 0 3 -43 6 -95 6 -52 0 -95 -2 -95 -5 0 -3 9 -24 21 -46 26 -52
39 -170 32 -287 -5 -74 -9 -90 -18 -80 -7 7 -63 95 -125 196 -62 100 -124 191
-137 202 -22 17 -41 20 -123 20 -53 0 -99 -3 -103 -6z"/>
<path d="M4297 1284 c-3 -3 5 -23 19 -43 31 -48 48 -207 39 -371 -5 -93 -11
-125 -31 -167 -14 -29 -22 -58 -18 -64 7 -12 258 -8 270 4 4 3 -2 39 -12 79
-25 101 -25 394 -1 486 9 35 17 68 17 73 0 10 -273 13 -283 3z"/>
<path d="M2770 1055 c-68 -31 -110 -94 -110 -165 l0 -40 49 0 c48 0 49 1 55
36 10 49 38 74 84 74 39 0 60 -12 134 -72 56 -47 106 -68 160 -68 48 0 114 27
140 56 26 29 48 89 48 129 l0 35 -50 0 c-48 0 -49 -1 -56 -34 -15 -81 -94
-104 -161 -48 -98 81 -139 104 -199 108 -40 3 -70 -1 -94 -11z"/>
</g>
</svg>
