<?xml version="1.0" encoding="UTF-8" standalone="no" ?>
<!DOCTYPE svg PUBLIC "-//W3C//DTD SVG 1.1//EN" "http://www.w3.org/Graphics/SVG/1.1/DTD/svg11.dtd">
<svg xmlns="http://www.w3.org/2000/svg" xmlns:xlink="http://www.w3.org/1999/xlink" version="1.1" width="640" height="480" viewBox="0 0 640 480" xml:space="preserve">
<desc>Created with Fabric.js 3.6.6</desc>
<defs>
</defs>
<g transform="matrix(0.08 0 0 -0.08 337.96 69.67)"  >
<path style="stroke: none; stroke-width: 1; stroke-dasharray: none; stroke-linecap: butt; stroke-dashoffset: 0; stroke-linejoin: miter; stroke-miterlimit: 4; fill: rgb(0,0,0); fill-rule: nonzero; opacity: 1;"  transform=" translate(-3003.95, -4711.73)" d="M 2924 4869 c -57 -27 -71 -45 -88 -112 c -22 -83 1 -148 67 -194 c 34 -23 51 -28 103 -28 c 55 0 67 4 100 30 c 51 42 74 89 74 150 c 0 131 -137 213 -256 154 z" stroke-linecap="round" />
</g>
<g transform="matrix(0.08 0 0 -0.08 337.99 199.62)"  >
<path style="stroke: none; stroke-width: 1; stroke-dasharray: none; stroke-linecap: butt; stroke-dashoffset: 0; stroke-linejoin: miter; stroke-miterlimit: 4; fill: rgb(0,0,0); fill-rule: nonzero; opacity: 1;"  transform=" translate(-3001.5, -3197.61)" d="M 2940 4420 c -232 -47 -414 -292 -510 -685 c -17 -72 -35 -140 -40 -152 c -12 -28 -22 -24 -115 37 c -157 104 -338 183 -487 214 c -369 76 -612 -133 -571 -488 c 20 -169 92 -349 220 -554 c 39 -61 62 -107 57 -112 c -5 -5 -68 -23 -139 -39 c -273 -62 -458 -154 -591 -293 c -73 -76 -112 -152 -126 -247 c -15 -104 -9 -118 55 -126 c 28 -3 433 -5 898 -3 c 699 2 849 5 862 17 c 12 9 17 29 17 67 c 0 193 119 392 282 469 c 226 108 452 76 616 -86 c 99 -98 161 -244 162 -381 c 0 -97 -91 -89 926 -86 c 1000 3 914 -4 914 78 c 0 152 -83 287 -244 399 c -126 87 -259 141 -475 192 c -69 16 -130 34 -135 39 c -6 6 16 51 56 117 c 168 276 225 451 216 660 c -8 154 -54 245 -159 315 c -213 140 -519 87 -904 -156 c -100 -63 -108 -62 -121 13 c -19 116 -79 310 -129 415 c -81 172 -219 317 -343 360 c -55 20 -139 26 -192 16 z m -25 -785 c 0 -531 -1 -580 -17 -583 c -10 -2 -41 27 -86 80 c -38 46 -113 126 -166 179 c -112 112 -110 105 -76 286 c 46 239 134 444 238 555 c 47 49 71 68 86 66 l 21 -3 l 0 -580 z m 286 518 c 102 -112 186 -308 235 -548 c 36 -182 38 -173 -59 -274 c -97 -101 -196 -214 -222 -254 c -12 -19 -25 -27 -39 -25 l -21 3 l -3 570 c -1 314 0 576 3 583 c 10 28 46 9 106 -55 z m -1431 -488 c 137 -32 285 -101 447 -208 c 159 -106 150 -86 157 -327 c 4 -113 8 -225 9 -250 c 1 -33 -2 -45 -13 -47 c -9 -2 -188 169 -423 405 c -381 381 -408 410 -392 425 c 21 22 125 22 215 2 z m 2668 9 c 12 -4 22 -14 22 -23 c 0 -9 -182 -198 -404 -420 c -437 -437 -445 -443 -432 -338 c 3 28 9 131 12 227 c 3 96 7 185 10 197 c 9 46 123 134 297 231 c 169 95 396 152 495 126 z m -2603 -564 c 372 -373 408 -411 394 -426 c -14 -13 -27 -14 -96 -4 c -44 6 -155 12 -248 14 l -168 3 l -24 29 c -63 76 -184 272 -223 359 c -60 139 -83 226 -84 320 c -1 86 6 115 26 115 c 7 0 198 -184 423 -410 z m 2787 375 c 30 -103 -43 -346 -165 -550 c -129 -214 -172 -255 -256 -241 c -21 3 -109 1 -197 -5 c -87 -6 -172 -12 -189 -13 c -72 -3 -49 25 366 441 c 222 222 410 402 418 401 c 8 -2 18 -16 23 -33 z m -1970 -421 c 86 -101 210 -283 206 -303 c -2 -8 -20 -20 -41 -27 c -21 -7 -74 -30 -118 -50 c -45 -20 -85 -32 -89 -28 c -23 24 -70 304 -70 422 c 0 65 2 72 20 72 c 12 0 46 -31 92 -86 z m 818 21 c 0 -72 -24 -259 -45 -349 c -20 -87 -28 -91 -100 -57 c -33 15 -84 36 -113 45 c -29 10 -56 24 -59 32 c -15 39 253 394 298 394 c 17 0 19 -7 19 -65 z m -1290 -580 c 129 -19 194 -34 216 -49 c 17 -13 16 -18 -18 -92 c -20 -44 -41 -96 -48 -116 c -9 -29 -17 -38 -34 -38 c -27 0 -162 92 -293 198 c -85 69 -105 96 -86 116 c 9 8 132 -1 263 -19 z m 1915 8 c 5 -13 -7 -31 -47 -67 c -69 -64 -218 -175 -290 -215 l -57 -32 l -14 28 c -8 15 -20 46 -27 68 c -7 22 -23 61 -36 87 c -31 62 -30 74 9 87 c 73 23 300 56 413 60 c 31 1 44 -3 49 -16 z m -2452 -4 c 12 -7 76 -64 142 -128 c 66 -64 144 -134 173 -156 c 38 -28 52 -46 50 -60 c -3 -20 -9 -20 -583 -20 l -580 0 l 0 21 c 0 12 17 40 37 63 c 110 121 326 217 594 266 c 71 13 133 24 137 24 c 5 1 18 -4 30 -10 z m 2912 -20 c 230 -45 426 -128 533 -225 c 74 -66 88 -89 71 -110 c -10 -12 -98 -14 -578 -14 c -560 0 -591 2 -591 31 c 0 4 32 33 71 64 c 40 32 125 109 190 172 l 118 113 l 43 -6 c 24 -3 88 -15 143 -25 z" stroke-linecap="round" />
</g>
<g transform="matrix(0.08 0 0 -0.08 176.41 135.21)"  >
<path style="stroke: none; stroke-width: 1; stroke-dasharray: none; stroke-linecap: butt; stroke-dashoffset: 0; stroke-linejoin: miter; stroke-miterlimit: 4; fill: rgb(0,0,0); fill-rule: nonzero; opacity: 1;"  transform=" translate(-1140.02, -3955.37)" d="M 1125 4135 c -5 -2 -22 -6 -37 -9 c -59 -13 -128 -99 -128 -158 c 0 -44 21 -99 51 -132 c 71 -81 184 -81 261 1 c 98 103 38 270 -107 295 c -16 3 -34 4 -40 3 z" stroke-linecap="round" />
</g>
<g transform="matrix(0.08 0 0 -0.08 499.65 135.41)"  >
<path style="stroke: none; stroke-width: 1; stroke-dasharray: none; stroke-linecap: butt; stroke-dashoffset: 0; stroke-linejoin: miter; stroke-miterlimit: 4; fill: rgb(0,0,0); fill-rule: nonzero; opacity: 1;"  transform=" translate(-4869.68, -3953.24)" d="M 4800 4123 c -135 -51 -148 -252 -21 -322 c 107 -59 229 -3 263 122 c 11 43 10 49 -18 104 c -37 72 -85 103 -159 102 c -27 0 -57 -3 -65 -6 z" stroke-linecap="round" />
</g>
</svg>